# xmcd
#
# Track frame offsets: 
#        150
#        16935
#        38375
#        54650
#        78712
#        94655
#        116297
#        136427
#
# Disc length: 2057 seconds
#
# Revision: 1
# Processed by: cddbd v1.5.2PL0 Copyright (c) Steve Scherf et al.
# Submitted via: ExactAudioCopy v1.0b3
#
DISCID=5a080708
DTITLE=Randy Brown - Check It Out
DYEAR=1981
DGENRE=Soul
TTITLE0=Sweet To The Bone
TTITLE1=Heaven Knows
TTITLE2=If It's Love That You Want
TTITLE3=Two Fools
TTITLE4=If I Had To Do It All Over
TTITLE5=Thank You For The Happiness
TTITLE6=Without You
TTITLE7=Smoking Room
EXTD=
EXTT0=
EXTT1=
EXTT2=
EXTT3=
EXTT4=
EXTT5=
EXTT6=
EXTT7=
PLAYORDER=
